<svg width="24" height="24" viewBox="0 0 24 24" fill="none" xmlns="http://www.w3.org/2000/svg">
<path d="M9 12C9 12.7956 9.31607 13.5587 9.87868 14.1213C10.4413 14.6839 11.2044 15 12 15C12.7956 15 13.5587 14.6839 14.1213 14.1213C14.6839 13.5587 15 12.7956 15 12C15 11.2044 14.6839 10.4413 14.1213 9.87868C13.5587 9.31607 12.7956 9 12 9C11.2044 9 10.4413 9.31607 9.87868 9.87868C9.31607 10.4413 9 11.2044 9 12Z" stroke="white" stroke-width="2" stroke-linecap="round" stroke-linejoin="round"/>
<path d="M12 2C12.7956 2 13.5587 2.31607 14.1213 2.87868C14.6839 3.44129 15 4.20435 15 5C15 5.562 14.7413 6.442 14.224 7.64L13.5 9L15.26 7.107C15.7587 6.50767 16.182 6.106 16.53 5.902C16.869 5.70546 17.2436 5.57795 17.6321 5.52683C18.0207 5.47571 18.4155 5.50199 18.7938 5.60415C19.1721 5.70631 19.5265 5.88233 19.8365 6.12207C20.1465 6.3618 20.406 6.66052 20.6 7.001C20.9958 7.68969 21.1033 8.5069 20.8991 9.27453C20.6949 10.0422 20.1956 10.698 19.51 11.099C19.136 11.3163 18.5207 11.4947 17.664 11.634L15 12L17.4 12.326C18.4 12.471 19.098 12.663 19.51 12.902C20.1956 13.303 20.6949 13.9588 20.8991 14.7265C21.1033 15.4941 20.9958 16.3113 20.6 17C20.4059 17.3404 20.1463 17.639 19.8363 17.8787C19.5263 18.1183 19.1719 18.2942 18.7936 18.3963C18.4152 18.4983 18.0205 18.5245 17.632 18.4733C17.2435 18.4221 16.869 18.2946 16.53 18.098C16.182 17.896 15.7587 17.4943 15.26 16.893L13.5 15L14.224 16.36C14.7407 17.5593 14.9993 18.4393 15 19C15 19.7956 14.6839 20.5587 14.1213 21.1213C13.5587 21.6839 12.7956 22 12 22C11.2043 22 10.4413 21.6839 9.87866 21.1213C9.31605 20.5587 8.99998 19.7956 8.99998 19C8.99998 18.438 9.25865 17.558 9.77598 16.36L10.5 15L8.73998 16.893C8.24132 17.493 7.81798 17.8947 7.46998 18.098C7.13101 18.2946 6.75649 18.4221 6.368 18.4733C5.97951 18.5245 5.58473 18.4983 5.20641 18.3963C4.82808 18.2942 4.4737 18.1183 4.16367 17.8787C3.85363 17.639 3.59409 17.3404 3.39998 17C3.00419 16.3113 2.89667 15.4941 3.10084 14.7265C3.30502 13.9588 3.80434 13.303 4.48998 12.902C4.86398 12.6847 5.47932 12.506 6.33598 12.366L8.99998 12L6.59998 11.675C5.59998 11.53 4.90198 11.338 4.48998 11.099C3.80407 10.698 3.30456 10.042 3.10037 9.2741C2.89618 8.50623 3.00388 7.68878 3.39998 7C3.59401 6.65952 3.85349 6.3608 4.16348 6.12107C4.47348 5.88133 4.82785 5.70531 5.20618 5.60315C5.58451 5.50099 5.97932 5.47471 6.36785 5.52583C6.75638 5.57695 7.13095 5.70446 7.46998 5.901C7.81798 6.10367 8.24132 6.50533 8.73998 7.106L10.5 9C9.49998 6.708 8.99998 5.37467 8.99998 5C8.99998 4.20435 9.31605 3.44129 9.87866 2.87868C10.4413 2.31607 11.2043 2 12 2Z" stroke="white" stroke-width="2" stroke-linecap="round" stroke-linejoin="round"/>
</svg>
